<?xml version="1.0" encoding="utf-8"?>
<!-- Generator: Adobe Illustrator 26.1.0, SVG Export Plug-In . SVG Version: 6.00 Build 0)  -->
<svg version="1.1" id="a" xmlns="http://www.w3.org/2000/svg" xmlns:xlink="http://www.w3.org/1999/xlink" x="0px" y="0px"
	 viewBox="0 0 1703.3 800" style="enable-background:new 0 0 1703.3 800;" xml:space="preserve">
<style type="text/css">
	.st0{fill:#FFFFFF;}
	.st1{fill:#FF5F05;}
</style>
<g>
	<rect y="525" class="st0" width="59.5" height="270.4"/>
	<polygon class="st0" points="189.6,525 130.1,525 130.1,795.4 324.4,795.4 324.4,741.3 189.6,741.3 	"/>
	<polygon class="st0" points="427.5,525 368,525 368,795.4 562.3,795.4 562.3,741.3 427.5,741.3 	"/>
	<rect x="607.2" y="525" class="st0" width="59.5" height="270.4"/>
	<polygon class="st0" points="918.9,691.4 792.2,525 737.3,525 737.3,795.4 796,795.4 796,623.5 927,795.4 977.6,795.4 977.6,525 
		918.9,525 	"/>
	<path class="st0" d="M1177.9,520.3c-83.4,0-144.1,63-144.1,139.8v0.8c0,76.9,59.9,139.1,143.3,139.1s144.1-63,144.1-139.8v-0.8
		C1321.2,582.5,1261.4,520.3,1177.9,520.3L1177.9,520.3z M1259,660.9c0,46.4-33.2,84.2-81.1,84.2s-81.9-38.6-81.9-85v-0.8
		c0-46.3,33.2-84.2,81.1-84.2s81.9,38.6,81.9,85V660.9z"/>
	<rect x="1378.8" y="525" class="st0" width="59.5" height="270.4"/>
	<path class="st0" d="M1617.6,633.5c-46.7-12-58.3-17.8-58.3-35.5v-0.8c0-13.1,12-23.6,34.8-23.6s46.4,10,70.3,26.7l30.9-44.8
		c-27.4-22-61-34.4-100.4-34.4c-55.2,0-94.6,32.4-94.6,81.5v0.8c0,53.7,35.2,68.8,89.6,82.7c45.2,11.6,54.5,19.3,54.5,34.4v0.8
		c0,15.8-14.7,25.5-39,25.5c-30.9,0-56.4-12.8-80.7-32.8l-35.2,42.1c32.4,29,73.8,43.3,114.7,43.3c58.3,0,99.3-30.1,99.3-83.8v-0.8
		C1703.3,667.5,1672.4,647.8,1617.6,633.5L1617.6,633.5z"/>
	<path class="st0" d="M723.5,99.7h57v170.8h-57v99.7h256.3v-99.7h-56.9V99.7h56.9V0H723.5V99.7z M737.8,14.2h227.8v71.2h-42.7
		c-7.9,0-14.2,6.4-14.2,14.2v170.8c0,7.9,6.4,14.2,14.2,14.2h42.7v71.2H737.8v-71.2h42.7c7.8,0,14.2-6.4,14.2-14.2V99.7
		c0-7.9-6.4-14.2-14.2-14.2h-42.7L737.8,14.2L737.8,14.2z"/>
</g>
<path class="st1" d="M922.9,85.4h42.7V14.2H737.8v71.2h42.7c7.8,0,14.2,6.4,14.2,14.2v170.8c0,7.9-6.4,14.2-14.2,14.2h-42.7v71.2
	h227.8v-71.2h-42.7c-7.9,0-14.2-6.4-14.2-14.2V99.7C908.6,91.8,915,85.4,922.9,85.4"/>
</svg>
